<svg xmlns="http://www.w3.org/2000/svg" viewBox="0 0 64 64" fill="none">
  <defs>
    <linearGradient id="bg" x1="0" y1="0" x2="64" y2="64" gradientUnits="userSpaceOnUse">
      <stop offset="0%" stop-color="#0f172a"/>
      <stop offset="100%" stop-color="#1e293b"/>
    </linearGradient>
    <linearGradient id="accent" x1="10" y1="10" x2="54" y2="54" gradientUnits="userSpaceOnUse">
      <stop offset="0%" stop-color="#E8357C"/>
      <stop offset="100%" stop-color="#ff6b9d"/>
    </linearGradient>
  </defs>
  <!-- Rounded square background -->
  <rect width="64" height="64" rx="16" fill="url(#bg)"/>
  <!-- Shrink arrows (converging) -->
  <path d="M18 18L28 28" stroke="url(#accent)" stroke-width="4" stroke-linecap="round"/>
  <path d="M18 18L26 18" stroke="url(#accent)" stroke-width="4" stroke-linecap="round"/>
  <path d="M18 18L18 26" stroke="url(#accent)" stroke-width="4" stroke-linecap="round"/>
  <path d="M46 46L36 36" stroke="url(#accent)" stroke-width="4" stroke-linecap="round"/>
  <path d="M46 46L38 46" stroke="url(#accent)" stroke-width="4" stroke-linecap="round"/>
  <path d="M46 46L46 38" stroke="url(#accent)" stroke-width="4" stroke-linecap="round"/>
  <!-- Link chain in center -->
  <path d="M26 34C26 30.686 28.686 28 32 28H36C39.314 28 42 30.686 42 34C42 37.314 39.314 40 36 40H34" stroke="url(#accent)" stroke-width="3.5" stroke-linecap="round"/>
  <path d="M38 30C38 33.314 35.314 36 32 36H28C24.686 36 22 33.314 22 30C22 26.686 24.686 24 28 24H30" stroke="url(#accent)" stroke-width="3.5" stroke-linecap="round"/>
</svg>
